<?xml version="1.0" encoding="UTF-8" standalone="no"?>
<svg width="155px" height="37px" viewBox="0 0 155 37" version="1.1" xmlns="http://www.w3.org/2000/svg" xmlns:xlink="http://www.w3.org/1999/xlink">
    <!-- Generator: Sketch 42 (36781) - http://www.bohemiancoding.com/sketch -->
    <title>Page 1</title>
    <desc>Created with Sketch.</desc>
    <defs>
        <path d="M6.68353726,0 C4.36310028,0 2.68162833,0.544346304 1.6200138,1.62123346 C0.543569457,2.71453307 0.000142594296,4.4094786 0.000142594296,6.71945914 C0.000142594296,7.93757977 0.188937443,8.96249416 0.563390064,9.79506615 C0.935418583,10.637572 1.46615455,11.3124981 2.15231831,11.8172529 C2.74779209,12.2435447 3.34283809,12.5345058 3.94301748,12.690856 C4.53948942,12.8675058 5.42300368,12.9571984 6.59512879,12.9571984 L11.4387718,12.9571984 C11.5183395,12.9571984 11.5827921,12.8929883 11.5827921,12.8119339 L11.5827921,11.1711206 C11.5827921,11.09093 11.5180543,11.025856 11.4407682,11.025856 L6.75126955,11.025856 C5.31948022,11.025856 4.29821987,10.7010623 3.70203312,10.0264241 C3.11597056,9.35322568 2.83235051,8.38546693 2.83235051,6.8408249 C2.83235051,5.05762646 3.13022999,3.90270817 3.74167433,3.0969144 C4.37194112,2.29068872 5.38464581,1.89247082 6.75126955,1.89247082 L11.4407682,1.89247082 C11.5193376,1.89247082 11.5827921,1.82710895 11.5827921,1.74706226 L11.5827921,0.14540856 C11.5827921,0.0649299611 11.5190524,0 11.4414811,0 L6.68353726,0 Z" id="path-1"></path>
        <path d="M0.141596136,0 C0.0633118675,0 0,0.0636342412 0,0.143392996 L0,12.8139494 C0,12.8929883 0.0641674333,12.9571984 0.141596136,12.9571984 L2.56213431,12.9571984 C2.64027599,12.9571984 2.70373045,12.8937082 2.70373045,12.8139494 L2.70373045,0.143392996 C2.70373045,0.0642101167 2.63942042,0 2.56213431,0 L0.141596136,0 Z" id="path-3"></path>
        <path d="M3.30105796,0.325081712 C3.97709752,0.107400778 4.74682153,0 5.62106716,0 C7.33191352,0 8.69169273,0.432914397 9.70568077,1.29672763 C10.7128243,2.17608949 11.215184,3.34554864 11.215184,4.8187821 C11.215184,6.28913619 10.7118261,7.45845136 9.70468261,8.33234241 C8.69169273,9.20781712 7.33234131,9.6459144 5.62106716,9.6459144 C3.91121895,9.6459144 2.55201012,9.20954475 1.52861086,8.3360856 C0.51048758,7.46737743 0,6.29575875 0,4.8187821 C0,3.37506226 0.510630175,2.20675486 1.5300368,1.3125642 C2.03325207,0.867412451 2.62159614,0.539307393 3.30105796,0.325081712 Z M3.49013799,7.06642412 C4.00975161,7.59925292 4.71274149,7.86775486 5.59155014,7.86775486 C6.49930543,7.86775486 7.2149862,7.59925292 7.73474241,7.06642412 C8.24551518,6.53431518 8.49719411,5.78538911 8.49719411,4.81719844 C8.49719411,3.84915175 8.23938362,3.10310506 7.71677553,2.59676654 C7.21897884,2.05011673 6.51114075,1.77499222 5.59155014,1.77499222 C4.69819687,1.77499222 3.99977001,2.0479572 3.49013799,2.57977821 C2.96924103,3.11174319 2.70929163,3.86081323 2.70929163,4.81719844 C2.70929163,5.78538911 2.96924103,6.53431518 3.49013799,7.06642412 Z" id="path-5"></path>
        <path d="M7.5401012,0 C7.46138914,0 7.3975069,0.0646420233 7.3975069,0.144256809 L7.3975069,7.4633463 L4.56900644,7.4633463 C3.80327507,7.4633463 3.28380405,7.34255642 3.01458602,7.09161868 C2.70943422,6.85205447 2.56598436,6.39423346 2.56598436,5.72103502 L2.56598436,0.144400778 C2.56598436,0.0646420233 2.5025299,0 2.42438822,0 L0.141596136,0 C0.0634544618,0 0,0.0646420233 0,0.143680934 L0,6.31217121 C0,7.49228405 0.342083717,8.33162257 1.02539558,8.84875875 C1.705,9.37712451 2.81680773,9.6459144 4.36096136,9.6459144 L9.84014719,9.6459144 C9.91843146,9.6459144 9.98188592,9.58170428 9.98188592,9.50208949 L9.98188592,0.143824903 C9.98188592,0.0644980545 9.91786109,0 9.83929163,0 L7.5401012,0 Z" id="path-7"></path>
        <path d="M8.06470561,0 L10.3422217,0 C10.4202208,0 10.4833901,0.0647859922 10.4833901,0.145120623 L10.4833901,12.7688872 C10.4833901,12.8503735 10.4192226,12.9138638 10.3399402,12.9138638 L5.12070377,12.9138638 C3.50297148,12.9138638 2.24700092,12.5011051 1.34281049,11.6777471 C0.447603496,10.8788638 0,9.74251751 0,8.25805447 C0,6.19872374 0.891927323,5.09217899 1.28734131,4.67567704 C1.71113155,4.31906615 2.1175253,3.95799222 2.76304968,3.74851751 C3.40871665,3.53918677 4.26028979,3.43365759 5.32033579,3.43365759 L7.92325207,3.43365759 L7.92325207,0.143249027 C7.92325207,0.0655058366 7.98656394,0 8.06470561,0 Z M3.53662374,10.4501245 C3.98137534,10.8636031 4.7473919,11.067607 5.83666973,11.067607 L7.78065777,11.067607 L7.78065777,5.29387938 L6.04471481,5.29387938 C4.86831187,5.29387938 3.99264029,5.47081712 3.43067617,6.19872374 C2.86842686,6.92663035 2.8624379,7.47155253 2.8624379,8.4642179 C2.8624379,9.3892179 3.09073137,10.0491712 3.53662374,10.4501245 Z" id="path-9"></path>
        <path d="M8.13044158,0 L10.4079577,0 C10.4858142,0 10.549126,0.0647859922 10.549126,0.145120623 L10.549126,12.7688872 C10.549126,12.8503735 10.4849586,12.9138638 10.4058188,12.9138638 L5.18658234,12.9138638 C3.56856486,12.9138638 2.31273689,12.5011051 1.40854646,11.6777471 C0.513339466,10.8788638 0.0657359706,9.74251751 0.0657359706,8.25805447 C0.0657359706,6.19872374 0.957805888,5.09217899 1.35321987,4.67567704 C1.77701012,4.31906615 2.18340386,3.95799222 2.82892824,3.74851751 C3.47431003,3.53918677 4.32616835,3.43365759 5.38621435,3.43365759 L7.98913063,3.43365759 L7.98913063,0.143249027 C7.98913063,0.0655058366 8.05229991,0 8.13044158,0 Z M3.6025023,10.4501245 C4.04711132,10.8636031 4.81327047,11.067607 5.9024057,11.067607 L7.84639374,11.067607 L7.84639374,5.29387938 L6.11045078,5.29387938 C4.93390524,5.29387938 4.05837626,5.47081712 3.49612695,6.19872374 C2.93416283,6.92663035 2.92831647,7.47155253 2.92831647,8.4642179 C2.92831647,9.3892179 3.15660994,10.0491712 3.6025023,10.4501245 Z" id="path-11"></path>
        <path d="M12.0222677,0 C11.9439834,0 11.8588546,0.0601789883 11.8320469,0.13518677 L8.21770929,10.2383463 L5.15079117,1.75483658 L4.56515639,0.134898833 C4.53834867,0.0604669261 4.45264949,0 4.37379485,0 L0.142594296,0 C0.0638822447,0 0,0.0636342412 0,0.143392996 L0,12.8139494 C0,12.8929883 0.0633118675,12.9571984 0.141168353,12.9571984 L2.41811408,12.9571984 C2.49625575,12.9571984 2.55942502,12.8924125 2.55942502,12.8139494 L2.55942502,1.94070039 L6.69280589,12.8218677 C6.72103956,12.8965875 6.80873505,12.9571984 6.88701932,12.9571984 L9.6949862,12.9571984 C9.77398344,12.9571984 9.86096596,12.8958677 9.88805888,12.8230195 L13.9093606,2.04104669 L13.9281831,12.8132296 C13.9283257,12.8927004 13.9914949,12.9571984 14.0707774,12.9571984 L16.2366421,12.9571984 C16.3152116,12.9571984 16.3788086,12.8937082 16.3788086,12.8139494 L16.3788086,0.143392996 C16.3788086,0.0642101167 16.3153542,0 16.2369273,0 L12.0222677,0 Z" id="path-13"></path>
        <path d="M0.142594296,0 C0.0638822447,0 0,0.0642101167 0,0.143824903 L0,9.50208949 C0,9.58156031 0.0645952162,9.6459144 0.142594296,9.6459144 L2.58067157,9.6459144 C2.65924103,9.6459144 2.72312328,9.58170428 2.72312328,9.50208949 L2.72312328,0.143824903 C2.72312328,0.0644980545 2.65852806,0 2.58067157,0 L0.142594296,0 Z" id="path-15"></path>
        <path d="M0.199632015,0 C0.120919963,0 0.0570377185,0.0646420233 0.0570377185,0.145120623 L0.0570377185,2.01455642 C0.0570377185,2.09445914 0.121632935,2.15967704 0.199632015,2.15967704 L2.63799448,2.15967704 C2.71670653,2.15967704 2.78058878,2.09489105 2.78058878,2.01455642 L2.78058878,0.145120623 C2.78058878,0.0649299611 2.71599356,0 2.63799448,0 L0.199632015,0 Z" id="path-17"></path>
        <path d="M3.75051518,0 C2.48827047,0 1.55527599,0.236684825 0.956522539,0.699544747 C0.365041398,1.16888327 0.0657359706,1.9263035 0.0657359706,2.98029961 C0.0657359706,3.98261089 0.320124195,4.67178988 0.819632015,5.05345136 C1.3048804,5.45210117 2.25883625,5.65696887 3.68235511,5.65696887 L6.16149954,5.65696887 C6.72346366,5.65696887 7.13385005,5.72866537 7.41661454,5.887607 C7.69096596,6.06915175 7.82785649,6.35881712 7.82785649,6.73875097 C7.82785649,7.12300389 7.69082337,7.40331128 7.42032199,7.56685992 C7.1525299,7.75617899 6.73358786,7.84673541 6.16149954,7.84673541 L0.390137994,7.84673541 C0.31099816,7.84673541 0.246830727,7.91080156 0.246830727,7.99084825 L0.246830727,9.50180156 C0.246830727,9.58127237 0.309857406,9.6459144 0.388854646,9.6459144 L7.52070837,9.6459144 C8.3674333,9.6459144 9.04618215,9.37510895 9.57278289,8.8300428 C10.0911132,8.27230739 10.3534867,7.54756809 10.3534867,6.66 C10.3534867,5.73586381 10.0528979,5.04107004 9.45599816,4.5750428 C8.86137994,4.09605837 7.99041398,3.85606226 6.82784269,3.85606226 L4.24175253,3.85606226 C3.73768169,3.85606226 3.36736431,3.78004669 3.13322447,3.62067315 C2.86628795,3.45698054 2.73538638,3.186607 2.73538638,2.82452529 C2.73538638,2.43624125 2.89423643,2.15420623 3.20224011,2.01254086 C3.48029899,1.86410895 4.03171113,1.79471595 4.86888224,1.79471595 L9.63053358,1.79471595 C9.70853266,1.79471595 9.77184453,1.73064981 9.77184453,1.65089105 L9.77184453,0.143824903 C9.77184453,0.0644980545 9.70839006,0 9.62910764,0 L3.75051518,0 Z" id="path-19"></path>
        <path d="M0.141881325,0 C0.0634544618,0 0,0.0642101167 0,0.143824903 L0,9.50208949 C0,9.58156031 0.0638822447,9.6459144 0.142451702,9.6459144 L2.44178473,9.6459144 C2.52049678,9.6459144 2.58437902,9.5811284 2.58437902,9.50280934 L2.58437902,2.14916732 L5.41287948,2.14916732 C6.17861086,2.14916732 6.69793928,2.26794163 6.96729991,2.51513619 C7.2724517,2.75110117 7.41590156,3.20172374 7.41590156,3.86498833 L7.41590156,9.50295331 C7.41590156,9.58199222 7.47949862,9.6459144 7.55764029,9.6459144 L9.84014719,9.6459144 C9.91843146,9.6459144 9.98174333,9.58098444 9.98174333,9.50093774 L9.98174333,3.28263424 C9.98174333,2.12066148 9.63965961,1.29428016 8.95649034,0.785062257 C8.27688592,0.264758755 7.1650782,0 5.62092456,0 L0.141881325,0 Z" id="path-21"></path>
        <path d="M15.3984729,0.345381323 C15.7756348,0.169883268 16.1911546,0.0822062257 16.6063891,0.0822062257 C17.0216237,0.0822062257 17.4365731,0.169883268 17.8128795,0.345381323 L17.8315593,0.345381323 L17.9855612,0.433202335 L31.8539972,8.32212062 C32.2247424,8.55880545 32.5334591,8.87985603 32.7526265,9.25244747 C33.0326817,9.73071206 33.1604462,10.2733307 33.1213753,10.8240117 L33.1178105,26.2643852 C33.1055474,26.7235019 32.9769273,27.1695175 32.744356,27.5662957 C32.4899678,27.9992101 32.1253542,28.351358 31.6821711,28.5958171 L31.6356854,28.6248988 L17.8769043,36.431179 C17.4823459,36.6278405 17.0467203,36.7306342 16.6059614,36.7306342 C16.2322217,36.7306342 15.8724563,36.6598016 15.5276633,36.5177043 L15.4934407,36.5177043 L15.2535971,36.3907237 L1.26695032,28.4396109 L1.2573965,28.4224786 C0.933564857,28.1901128 0.65949862,27.893249 0.46100736,27.5536265 C0.179383625,27.0783852 0.052474701,26.5323113 0.0914029439,25.9811984 L0.0914029439,11.2468482 C0.0914029439,11.2468482 0.0758601656,10.6634864 0.0914029439,10.4698482 C0.0998160074,10.3532335 0.141596136,10.1172685 0.164553818,10.0013735 C0.216458142,9.73272763 0.326540938,9.47804669 0.467281509,9.24236965 C0.73949402,8.77807004 1.13519319,8.40864591 1.61616375,8.16562646 L15.3793652,0.345381323 L15.3984729,0.345381323 Z M15.9858188,34.2605603 C16.1800322,34.3541401 16.3917847,34.4000661 16.6031095,34.4000661 C16.8517939,34.4000661 17.0994802,34.3364319 17.3172217,34.2118988 L17.4687994,34.1283969 L30.1320285,26.9335525 C30.3683073,26.8129066 30.5632337,26.6300661 30.6965593,26.4020195 C30.8263201,26.1785798 30.8902024,25.9244747 30.8795078,25.6650428 L30.8815041,25.4889689 L30.885069,11.2124397 C30.9068859,10.933284 30.8444296,10.6603191 30.7024057,10.4162918 C30.5772079,10.2019222 30.3938316,10.0245525 30.1713845,9.90275486 L30.0895354,9.85207782 L17.2874195,2.57776265 C16.8721849,2.35014786 16.3394526,2.35014786 15.9255014,2.57776265 L15.8668951,2.60929183 L3.28522999,9.75950584 L3.1049908,9.86014008 C2.85730451,9.98150584 2.65396504,10.1683774 2.51550598,10.4054942 C2.38660074,10.6227432 2.32343146,10.8761284 2.33098896,11.1334008 L2.32770929,11.8021362 L2.32770929,25.5932023 C2.3050368,25.8737977 2.36834867,26.1493541 2.50908924,26.3912218 C2.63200552,26.6009844 2.80311868,26.7677004 3.0174379,26.8920895 L3.18569917,26.9873969 L15.9464627,34.2398288 L15.9858188,34.2605603 Z" id="path-23"></path>
        <path d="M8.64891444,0.0968910506 C8.32436983,0.0973229572 7.82429163,0.366688716 7.56419963,0.507202335 C6.63819227,1.00878988 5.71204232,1.50994553 4.78560718,2.01138911 C3.27054278,2.8314358 1.7550506,3.65205837 0.239843606,4.47210506 C0.00242410304,4.60066926 0.00912603496,4.93842023 0.239843606,5.06871206 C2.97423183,6.61349805 5.54264029,8.15828405 8.27688592,9.70307004 C8.29413983,9.71271595 8.31039558,9.71300389 8.3275069,9.71977043 C8.43730451,9.78570817 8.78936983,9.71271595 8.80676633,9.70307004 C11.5355934,8.16188327 14.2647056,6.62098444 16.9938178,5.07979767 C17.2241076,4.94964981 17.2313799,4.61146693 16.9938178,4.48333463 C15.5221021,3.68877043 14.0503864,2.89391829 12.5786707,2.09921012 C11.630989,1.58740078 10.6835925,1.07587938 9.73605336,0.564070039 C9.44815547,0.408871595 9.00582797,0.0968910506 8.64962741,0.0968910506 L8.64891444,0.0968910506 Z" id="path-25"></path>
        <path d="M7.98684913,0.131875486 C5.38535879,1.67277432 2.78358326,3.21396109 0.182092916,4.75471595 C0.166122355,4.76378599 0.15899264,4.7771751 0.145873965,4.78739689 C0.127907084,4.79992218 0.112792088,4.814607 0.0981048758,4.83044358 C0.0842732291,4.847 0.0710119595,4.86254864 0.0606025759,4.88040078 C0.0487672493,4.90098833 0.0400689972,4.92359144 0.0325114995,4.94835409 C0.0276632935,4.96591829 0.0238132475,4.98319455 0.021674333,5.0014786 C0.0193928243,5.01947471 0.0114075437,5.03343969 0.0114075437,5.05301946 L0.0114075437,13.8925642 C0.0114075437,14.1544436 0.303868445,14.3224553 0.529310028,14.1908677 C1.9274471,13.3718288 3.32615455,12.5533658 4.72429163,11.7344708 C5.59169273,11.2265486 6.45937902,10.7187704 7.32692272,10.2104163 C7.60925943,10.0451401 8.18177553,9.73848638 8.36714811,9.44061479 C8.53925943,9.16347471 8.50475161,8.7666965 8.50475161,8.45961089 L8.50475161,5.38832296 L8.50475161,0.430178988 C8.50475161,0.231789883 8.33534959,0.0855175097 8.1549678,0.0855175097 C8.09850046,0.0855175097 8.04074977,0.100058366 7.98684913,0.131875486 Z" id="path-27"></path>
        <path d="M0.11051058,0.388428016 L0.11051058,5.36773541 L0.11051058,8.34587549 C0.11051058,8.6862179 0.0747194112,9.07306226 0.253960442,9.38403502 C0.411954922,9.65843969 0.936701932,10.0013735 1.19080497,10.1502374 C2.09100276,10.6777393 2.99105796,11.2050973 3.89168353,11.7325992 C5.2899632,12.5519261 6.68838546,13.3712529 8.08709292,14.1904358 C8.31267709,14.3225992 8.6049954,14.1541556 8.6049954,13.8924202 L8.6049954,5.01242023 C8.6049954,4.99284047 8.59701012,4.97887549 8.59458602,4.96131128 C8.59301748,4.94288327 8.58873965,4.92531907 8.58346366,4.90732296 C8.57647654,4.88299222 8.56792088,4.86067704 8.55565777,4.84037743 C8.54581877,4.82238132 8.53212971,4.80596887 8.51787029,4.78970039 C8.50318307,4.77400778 8.48849586,4.75961089 8.47124195,4.74722957 C8.45783809,4.73686381 8.45070837,4.72376265 8.43473781,4.71411673 C5.8325345,3.17292996 3.23033119,1.63131128 0.627985281,0.0901245136 C0.574227231,0.058307393 0.516476541,0.043766537 0.459866605,0.043766537 C0.279770009,0.043766537 0.11051058,0.190182879 0.11051058,0.388428016 Z" id="path-29"></path>
    </defs>
    <g id="中文设计" stroke="none" stroke-width="1" fill="none" fill-rule="evenodd">
        <g id="首页" transform="translate(-330.000000, -22.000000)">
            <g id="Group-21">
                <g id="Group-5">
                    <g id="Page-1" transform="translate(330.000000, 22.000000)">
                        <g id="Group-3" transform="translate(40.354186, 11.965253)">
                            <mask id="mask-2" fill="white">
                                <use xlink:href="#path-1"></use>
                            </mask>
                            <g id="Clip-2"></g>
                            <polygon id="Fill-1" fill="#4C4A4C" mask="url(#mask-2)" points="-0.712971481 13.6770428 12.2957636 13.6770428 12.2957636 -0.719844358 -0.712971481 -0.719844358"></polygon>
                        </g>
                        <g id="Group-6" transform="translate(54.185833, 11.965253)">
                            <mask id="mask-4" fill="white">
                                <use xlink:href="#path-3"></use>
                            </mask>
                            <g id="Clip-5"></g>
                            <polygon id="Fill-4" fill="#4C4A4C" mask="url(#mask-4)" points="-0.712971481 13.6770428 3.41655934 13.6770428 3.41655934 -0.719844358 -0.712971481 -0.719844358"></polygon>
                        </g>
                        <g id="Group-9" transform="translate(58.606256, 15.276537)">
                            <mask id="mask-6" fill="white">
                                <use xlink:href="#path-5"></use>
                            </mask>
                            <g id="Clip-8"></g>
                            <polygon id="Fill-7" fill="#4C4A4C" mask="url(#mask-6)" points="-0.712971481 10.3657588 11.9281555 10.3657588 11.9281555 -0.719844358 -0.712971481 -0.719844358"></polygon>
                        </g>
                        <g id="Group-12" transform="translate(71.439742, 15.276537)">
                            <mask id="mask-8" fill="white">
                                <use xlink:href="#path-7"></use>
                            </mask>
                            <g id="Clip-11"></g>
                            <polygon id="Fill-10" fill="#4C4A4C" mask="url(#mask-8)" points="-0.712971481 10.3657588 10.6948574 10.3657588 10.6948574 -0.719844358 -0.712971481 -0.719844358"></polygon>
                        </g>
                        <g id="Group-15" transform="translate(82.847286, 11.965253)">
                            <mask id="mask-10" fill="white">
                                <use xlink:href="#path-9"></use>
                            </mask>
                            <g id="Clip-14"></g>
                            <polygon id="Fill-13" fill="#4C4A4C" mask="url(#mask-10)" points="-0.712971481 13.6337082 11.1963615 13.6337082 11.1963615 -0.719844358 -0.712971481 -0.719844358"></polygon>
                        </g>
                        <g id="Group-18" transform="translate(132.042318, 11.965253)">
                            <mask id="mask-12" fill="white">
                                <use xlink:href="#path-11"></use>
                            </mask>
                            <g id="Clip-17"></g>
                            <polygon id="Fill-16" fill="#4C4A4C" mask="url(#mask-12)" points="-0.647235511 13.6337082 11.2620975 13.6337082 11.2620975 -0.719844358 -0.647235511 -0.719844358"></polygon>
                        </g>
                        <g id="Group-21" transform="translate(96.251150, 11.965253)">
                            <mask id="mask-14" fill="white">
                                <use xlink:href="#path-13"></use>
                            </mask>
                            <g id="Clip-20"></g>
                            <polygon id="Fill-19" fill="#4C4A4C" mask="url(#mask-14)" points="-0.712971481 13.6770428 17.0919227 13.6770428 17.0919227 -0.719844358 -0.712971481 -0.719844358"></polygon>
                        </g>
                        <g id="Group-24" transform="translate(115.073597, 15.276537)">
                            <mask id="mask-16" fill="white">
                                <use xlink:href="#path-15"></use>
                            </mask>
                            <g id="Clip-23"></g>
                            <polygon id="Fill-22" fill="#4C4A4C" mask="url(#mask-16)" points="-0.712971481 10.3657588 3.43609476 10.3657588 3.43609476 -0.719844358 -0.712971481 -0.719844358"></polygon>
                        </g>
                        <g id="Group-27" transform="translate(115.073597, 11.965253)">
                            <mask id="mask-18" fill="white">
                                <use xlink:href="#path-17"></use>
                            </mask>
                            <g id="Clip-26"></g>
                            <polygon id="Fill-25" fill="#4C4A4C" mask="url(#mask-18)" points="-0.655933763 2.87937743 3.49356026 2.87937743 3.49356026 -0.719844358 -0.655933763 -0.719844358"></polygon>
                        </g>
                        <g id="Group-30" transform="translate(144.590616, 15.276537)">
                            <mask id="mask-20" fill="white">
                                <use xlink:href="#path-19"></use>
                            </mask>
                            <g id="Clip-29"></g>
                            <polygon id="Fill-28" fill="#4C4A4C" mask="url(#mask-20)" points="-0.647235511 10.3657588 11.0663155 10.3657588 11.0663155 -0.719844358 -0.647235511 -0.719844358"></polygon>
                        </g>
                        <g id="Group-33" transform="translate(119.636615, 15.276537)">
                            <mask id="mask-22" fill="white">
                                <use xlink:href="#path-21"></use>
                            </mask>
                            <g id="Clip-32"></g>
                            <polygon id="Fill-31" fill="#4C4A4C" mask="url(#mask-22)" points="-0.712971481 10.3657588 10.6948574 10.3657588 10.6948574 -0.719844358 -0.712971481 -0.719844358"></polygon>
                        </g>
                        <g id="Group-36" transform="translate(0.000000, 0.015837)">
                            <mask id="mask-24" fill="white">
                                <use xlink:href="#path-23"></use>
                            </mask>
                            <g id="Clip-35"></g>
                            <polygon id="Fill-34" fill="#4C4A4C" mask="url(#mask-24)" points="-0.628413063 37.4503346 33.8411914 37.4503346 33.8411914 -0.637782101 -0.628413063 -0.637782101"></polygon>
                        </g>
                        <g id="Group-39" transform="translate(8.127875, 7.502218)">
                            <mask id="mask-26" fill="white">
                                <use xlink:href="#path-25"></use>
                            </mask>
                            <g id="Clip-38"></g>
                            <polygon id="Fill-37" fill="#85C33B" mask="url(#mask-26)" points="-0.648661454 10.4669689 17.8823229 10.4669689 17.8823229 -0.622953307 -0.648661454 -0.622953307"></polygon>
                        </g>
                        <g id="Group-42" transform="translate(17.681693, 14.556693)">
                            <mask id="mask-28" fill="white">
                                <use xlink:href="#path-27"></use>
                            </mask>
                            <g id="Clip-41"></g>
                            <polygon id="Fill-40" fill="#16539A" mask="url(#mask-28)" points="-0.701563937 14.9564942 9.22057498 14.9564942 9.22057498 -0.634326848 -0.701563937 -0.634326848"></polygon>
                        </g>
                        <g id="Group-45" transform="translate(6.987121, 14.556693)">
                            <mask id="mask-30" fill="white">
                                <use xlink:href="#path-29"></use>
                            </mask>
                            <g id="Clip-44"></g>
                            <polygon id="Fill-43" fill="#F26522" mask="url(#mask-30)" points="-0.605455382 14.9564942 9.31796688 14.9564942 9.31796688 -0.676077821 -0.605455382 -0.676077821"></polygon>
                        </g>
                    </g>
                </g>
            </g>
        </g>
    </g>
</svg>